# xmcd CD database file
#
# Track frame offsets:
#	180
#	23590
#	45560
#	53310
#	87630
#	108775
#	131350
#	176507
#	211077
#	247780
#	269602
#
# Disc length: 3890 seconds
#
# Revision: 0
# Processed by: cddbd v1.5.1PL2 Copyright (c) Steve Scherf et al.
# Submitted via: CDex 1.51
#
DISCID=810f300b
DTITLE=Radke/Bauer/Basman - a contrast music
DYEAR=1995
DGENRE=Jazz
TTITLE0=Long Nite
TTITLE1=Central Guitar
TTITLE2=From Uganda
TTITLE3=Luriecal
TTITLE4=Shankar
TTITLE5=Jungle and Song
TTITLE6=Nightshade Rounds
TTITLE7=Meeting of the Spirits
TTITLE8=Pas de Nuit and Titumber
TTITLE9=A-B-C
TTITLE10=Pas de Nuit
EXTD=YEAR: 1995
EXTT0=
EXTT1=
EXTT2=
EXTT3=
EXTT4=
EXTT5=
EXTT6=
EXTT7=
EXTT8=
EXTT9=
EXTT10=
PLAYORDER=
